# xmcd
#
# Track frame offsets: 
#        150
#        10882
#        20785
#        30410
#        42130
#        52257
#        67507
#        84178
#        100821
#        115881
#        132707
#        142935
#        154853
#        174041
#        185791
#
# Disc length: 2648 seconds
#
# Revision: 3
# Processed by: cddbd v1.5.2PL0 Copyright (c) Steve Scherf et al.
# Submitted via: ExactAudioCopy v0.99pb5
#
DISCID=bd0a560f
DTITLE=Various Artist - Classic Country - TL 626-35 - Country Life - CD 2
DYEAR=2003
DGENRE=Country
TTITLE0=Mel McDaniel - Louisiana Saturday night
TTITLE1=Jerry Reed - Are you from Dixie
TTITLE2=Porter Wagoner - Highway headin' south
TTITLE3=Mel Tillis - Southern rains
TTITLE4=Jim Ed Brown - Southern loving
TTITLE5=Alabama - 40 hour week (for a livin')
TTITLE6=Kathy Mattea - Love at the five and dime
TTITLE7=Randy Travis - Deeper than the holler
TTITLE8=Emmylou Harris - Blue Kentucky girl
TTITLE9=Ricky van Shelton - Backroads
TTITLE10=Johnny Cash with The Carter Family - Busted
TTITLE11=Jeannie C. Riley - Country girl
TTITLE12=Don Williams - Good ole boys like me
TTITLE13=Moe Bandy and Joe Stampley - Just good ol' boys
TTITLE14=Johnny Russell - Rednecks, white socks and blue ribbon beer
EXTD=
EXTT0=
EXTT1=
EXTT2=
EXTT3=
EXTT4=
EXTT5=
EXTT6=
EXTT7=
EXTT8=
EXTT9=
EXTT10=
EXTT11=
EXTT12=
EXTT13=
EXTT14=
PLAYORDER=
